<svg xmlns="http://www.w3.org/2000/svg" viewBox="0 0 512 512">
  <defs>
    <linearGradient id="bg" x1="0" y1="0" x2="1" y2="1">
      <stop offset="0" stop-color="#1b1d21"/>
      <stop offset="1" stop-color="#0f1012"/>
    </linearGradient>
    <linearGradient id="meeple" x1="0" y1="0" x2="0" y2="1">
      <stop offset="0" stop-color="#e35f56"/>
      <stop offset="1" stop-color="#b33b34"/>
    </linearGradient>
    <filter id="shadow" x="-20%" y="-20%" width="140%" height="140%">
      <feDropShadow dx="0" dy="14" stdDeviation="14" flood-color="#000000" flood-opacity="0.35"/>
    </filter>
  </defs>
  <rect width="512" height="512" rx="110" fill="url(#bg)"/>
  <g filter="url(#shadow)">
    <path d="M188 98c38 0 69 31 69 69 0 24-12 45-31 58l77 54-47 69-45-32v116h-69V316l-45 32-47-69 77-54c-19-13-31-34-31-58 0-38 31-69 69-69z" fill="url(#meeple)" stroke="#f8e7e6" stroke-width="14" stroke-linejoin="round"/>
    <g transform="translate(240 235) rotate(-3)">
      <rect x="0" y="0" width="154" height="154" rx="24" fill="#ffffff" stroke="#e7e1dc" stroke-width="10"/>
      <g fill="#141518">
        <circle cx="42" cy="42" r="10"/>
        <circle cx="77" cy="42" r="10"/>
        <circle cx="112" cy="42" r="10"/>
        <circle cx="42" cy="77" r="10"/>
        <circle cx="77" cy="77" r="10"/>
        <circle cx="112" cy="77" r="10"/>
      </g>
    </g>
  </g>
</svg>
